<?xml version="1.0" encoding="iso-8859-1"?>
<!-- Generator: Adobe Illustrator 19.0.0, SVG Export Plug-In . SVG Version: 6.00 Build 0)  -->
<svg version="1.1" id="Capa_1" xmlns="http://www.w3.org/2000/svg" xmlns:xlink="http://www.w3.org/1999/xlink" x="0px" y="0px"
	 viewBox="0 0 413.155 413.155" style="enable-background:new 0 0 413.155 413.155;" xml:space="preserve">
<polygon style="fill:#FDC75B;" points="403.127,180.415 363.927,223.615 339.827,204.415 206.527,97.515 74.727,203.215 
	49.127,223.615 9.927,180.415 206.527,23.515 "/>
<polygon style="fill:#ED664C;" points="339.827,204.415 338.327,206.315 338.327,389.815 257.727,389.815 257.727,388.815 
	257.727,271.115 155.327,271.115 155.327,387.615 155.327,389.815 74.727,389.815 74.727,203.215 74.727,203.215 206.527,97.515 "/>
<polygon style="fill:#FDC75B;" points="257.727,388.815 257.727,389.815 155.327,389.815 155.327,387.615 155.327,271.115 
	257.727,271.115 "/>
<path d="M41.727,230.315c3.6,3.9,9.4,4.4,13.6,1.1l9.2-7.5v165.9c0,5.5,4.7,9.8,10.2,9.8h263.6c5.5,0,10.2-4.3,10.2-9.8v-165.8
	l9.2,7.5c1.8,1.5,4,2.2,6.2,2.2c2.7,0,5.4-1.1,7.4-3.3l39.2-43.2c1.9-2,2.8-4.8,2.6-7.5c-0.2-2.8-1.6-5.3-3.7-7l-196.7-157
	c-3.6-2.9-8.8-2.9-12.5,0l-196.5,156.9c-2.2,1.7-3.5,4.3-3.7,7c-0.2,2.8,0.7,5.5,2.6,7.5L41.727,230.315z M247.527,379.615h-82v-99
	h82V379.615z M328.527,379.615h-61v-108.5c0-5.5-4.3-10.5-9.8-10.5h-102.4c-5.5,0-9.8,5-9.8,10.5v108.5h-61v-171.7l122-97.6
	l122,97.6V379.615z M206.527,36.315l182,145.3l-25.7,28.4l-150-120.2c-1.8-1.5-4-2.2-6.3-2.2s-4.4,0.7-6.3,2.2l-131.8,105.6l0,0
	l-18.2,14.6l-25.7-28.4L206.527,36.315z"/>
<g>
</g>
<g>
</g>
<g>
</g>
<g>
</g>
<g>
</g>
<g>
</g>
<g>
</g>
<g>
</g>
<g>
</g>
<g>
</g>
<g>
</g>
<g>
</g>
<g>
</g>
<g>
</g>
<g>
</g>
</svg>
