<svg id="Layer_1" enable-background="new 0 0 256 256" height="512" viewBox="0 0 256 256" width="512" xmlns="http://www.w3.org/2000/svg"><path d="m209.219 182.085h-19.915v-12.943c-5.509 3.819-11.208 6.072-16.739 6.072-5.305 0-10.904-2.275-16.389-6.14h-.338v13.01h-19.926c-16.648 0-30.142 13.494-30.142 30.142v27.315h133.591v-27.315c.001-16.647-13.494-30.141-30.142-30.141z" fill="#f8e4c8"/><path d="m209.219 180.585h-18.414v-11.443c0-.558-.31-1.07-.805-1.329-.494-.258-1.09-.222-1.55.096-5.556 3.852-10.9 5.805-15.884 5.805-4.777 0-10.001-1.974-15.525-5.866-.253-.178-.555-.274-.864-.274h-.338c-.828 0-1.5.671-1.5 1.5v11.511h-18.426c-17.448 0-31.643 14.194-31.643 31.642v27.315c0 .829.672 1.5 1.5 1.5h33.567c.828 0 1.5-.671 1.5-1.5s-.672-1.5-1.5-1.5h-32.067v-25.815c0-15.794 12.849-28.642 28.643-28.642h19.926c.828 0 1.5-.671 1.5-1.5v-10.43c5.313 3.359 10.427 5.059 15.228 5.059 4.879 0 9.994-1.615 15.238-4.806v10.177c0 .829.672 1.5 1.5 1.5h19.914c15.794 0 28.643 12.849 28.643 28.642v25.815h-84.79c-.828 0-1.5.671-1.5 1.5s.672 1.5 1.5 1.5h86.29c.828 0 1.5-.671 1.5-1.5v-27.315c-.001-17.448-14.195-31.642-31.643-31.642z" fill="#3a312a"/><path d="m209.219 182.072h-4.763l.121.097-20.714 27.465-10.69-8.048-10.69 8.048-20.714-27.465.121-.097h-5.975c-16.654 0-30.144 13.502-30.144 30.143v27.332h133.591v-27.332c0-16.641-13.49-30.143-30.143-30.143z" fill="#d7e057"/><path d="m209.219 180.572h-4.764c-.638 0-1.205.403-1.416 1.004-.024.071-.044.143-.058.216l-19.414 25.742-9.493-7.147c-.535-.402-1.27-.402-1.805 0l-9.492 7.147-19.414-25.742c-.014-.073-.033-.145-.058-.216-.211-.602-.778-1.004-1.416-1.004h-5.976c-17.448 0-31.644 14.195-31.644 31.643v27.332c0 .829.672 1.5 1.5 1.5h33.566c.828 0 1.5-.671 1.5-1.5s-.672-1.5-1.5-1.5h-32.066v-25.832c0-15.794 12.85-28.643 28.644-28.643h5.034l20.337 26.965c.498.661 1.438.792 2.1.295l9.787-7.369 9.788 7.369c.661.498 1.601.366 2.1-.295l20.337-26.965h3.822c15.794 0 28.644 12.85 28.644 28.643v25.832h-84.791c-.828 0-1.5.671-1.5 1.5s.672 1.5 1.5 1.5h86.291c.828 0 1.5-.671 1.5-1.5v-27.332c0-17.447-14.195-31.643-31.643-31.643z" fill="#3a312a"/><path d="m141.771 182.17.12-.1h-5.98c-16.65 0-30.14 13.5-30.14 30.15v27.33h56.4z" fill="#87796f"/><path d="m163.584 239.047-20.201-56.821c.022-.221-.003-.449-.082-.667-.215-.594-.778-.989-1.41-.989h-5.979c-17.446 0-31.641 14.198-31.641 31.65v27.33c0 .829.672 1.5 1.5 1.5h33.566c.828 0 1.5-.671 1.5-1.5s-.672-1.5-1.5-1.5h-32.066v-25.83c0-15.798 12.848-28.65 28.641-28.65h4.765l19.37 54.48h-6.975c-.828 0-1.5.671-1.5 1.5s.672 1.5 1.5 1.5h9.1c.487 0 .944-.237 1.226-.635.28-.398.349-.909.186-1.368z" fill="#3a312a"/><path d="m209.221 182.07h-4.77l.13.1-20.4 57.38h55.18v-27.33c0-16.65-13.49-30.15-30.14-30.15z" fill="#87796f"/><path d="m209.221 180.57h-4.77c-.642 0-1.213.409-1.42 1.016-.074.218-.096.443-.069.661l-20.194 56.8c-.163.459-.094.969.188 1.367.281.398.738.635 1.226.635h55.18c.828 0 1.5-.671 1.5-1.5v-27.33c-.002-17.451-14.195-31.649-31.641-31.649zm28.639 57.48h-51.555l19.37-54.48h3.545c15.792 0 28.64 12.853 28.64 28.65z" fill="#3a312a"/><path clip-rule="evenodd" d="m120.808 95.503c-6.551 0-11.861 5.31-11.861 11.86s5.31 11.86 11.861 11.86c6.55 0 11.86-5.31 11.86-11.86s-5.31-11.86-11.86-11.86z" fill="#f8e4c8" fill-rule="evenodd"/><path d="m120.808 94.003c-7.367 0-13.36 5.994-13.36 13.36s5.993 13.36 13.36 13.36 13.36-5.994 13.36-13.36-5.993-13.36-13.36-13.36zm0 23.721c-5.713 0-10.36-4.647-10.36-10.36s4.647-10.36 10.36-10.36 10.36 4.647 10.36 10.36c0 5.712-4.647 10.36-10.36 10.36z" fill="#3a312a"/><path clip-rule="evenodd" d="m224.328 95.503c-6.55 0-11.861 5.31-11.861 11.86s5.31 11.86 11.861 11.86 11.86-5.31 11.86-11.86c.001-6.55-5.309-11.86-11.86-11.86z" fill="#f8e4c8" fill-rule="evenodd"/><path d="m224.328 94.003c-7.367 0-13.36 5.994-13.36 13.36s5.993 13.36 13.36 13.36 13.36-5.994 13.36-13.36-5.993-13.36-13.36-13.36zm0 23.721c-5.713 0-10.36-4.647-10.36-10.36s4.647-10.36 10.36-10.36 10.36 4.647 10.36 10.36c0 5.712-4.647 10.36-10.36 10.36z" fill="#3a312a"/><path d="m227.592 73.7c0-13.98-5.77-26.67-15.16-36.03.57 1.63.87 3.28.87 4.91 0 5.52-3.8 10.56-10.06 14.38 1.3 2.16 2.92 4.14 4.82 5.88 9.52 8.7 15.81 20.86 16.91 34.48.14-.19.45-.29.69-.38 2.25-.82 1.93-21.44 1.93-23.24z" fill="#87796f"/><path d="m229.096 74.338-.004-.638c0-13.892-5.54-27.065-15.601-37.093-.493-.492-1.264-.581-1.857-.207-.592.372-.848 1.104-.617 1.764.521 1.492.785 2.977.785 4.416 0 4.771-3.317 9.424-9.341 13.1-.704.43-.93 1.347-.504 2.054 1.378 2.291 3.092 4.381 5.094 6.214 9.554 8.731 15.387 20.626 16.426 33.493.051.623.481 1.15 1.083 1.322.137.039.274.058.412.058.379 0 .747-.144 1.025-.405.039-.015.079-.028.116-.042.002-.001.043-.016.063-.024 1.303-.475 3.085-1.132 2.92-24.012zm-3.455 16.844c-2.203-11.289-7.958-21.582-16.565-29.448-1.424-1.304-2.684-2.752-3.76-4.321 6.132-4.125 9.486-9.349 9.486-14.832v-.081c7.313 8.879 11.29 19.785 11.29 31.201l.004.66c.061 8.561-.168 13.719-.455 16.821z" fill="#3a312a"/><path d="m130.794 216.456c-.828 0-1.5.671-1.5 1.5v21.589c0 .829.672 1.5 1.5 1.5s1.5-.671 1.5-1.5v-21.589c0-.829-.672-1.5-1.5-1.5z" fill="#3a312a"/><path d="m215.556 216.456c-.828 0-1.5.671-1.5 1.5v21.589c0 .829.672 1.5 1.5 1.5s1.5-.671 1.5-1.5v-21.589c0-.829-.672-1.5-1.5-1.5z" fill="#3a312a"/><path d="m178.287 219.355h-10.266l-3.115 20.192h16.496z" fill="#89c4db"/><path d="m182.885 239.319-3.115-20.193c-.113-.731-.742-1.271-1.482-1.271h-10.266c-.74 0-1.369.54-1.482 1.271l-3.115 20.193c-.066.433.059.873.344 1.205s.701.523 1.139.523h16.496c.438 0 .854-.191 1.139-.523.283-.333.408-.772.342-1.205zm-16.23-1.272 2.652-17.193h7.693l2.652 17.193z" fill="#3a312a"/><path d="m164.559 201.57 3.47 17.78h10.246l3.553-17.78z" fill="#89c4db"/><path d="m182.988 200.619c-.285-.347-.711-.549-1.16-.549h-17.268c-.448 0-.873.2-1.158.546-.284.346-.399.801-.314 1.241l3.47 17.78c.138.705.755 1.213 1.473 1.213h10.245c.715 0 1.331-.505 1.471-1.206l3.554-17.78c.086-.441-.028-.898-.313-1.245zm-5.943 17.231h-7.78l-2.884-14.78h13.618z" fill="#3a312a"/><path d="m150.777 174.652h13.441v34.407h-13.441z" fill="#d7e057" transform="matrix(.799 -.602 .602 .799 -83.75 133.429)"/><path d="m174.417 200.646-20.708-27.478c-.24-.318-.596-.527-.989-.582-.4-.055-.795.048-1.111.288l-10.734 8.09c-.318.239-.527.595-.583.989s.048.793.287 1.111l20.708 27.477c.295.391.744.597 1.199.597.314 0 .632-.098.901-.302l10.734-8.089c.318-.239.527-.595.583-.989s-.048-.794-.287-1.112zm-11.638 6.892-18.902-25.082 8.339-6.284 18.902 25.082z" fill="#3a312a"/><path d="m171.649 185.135h34.407v13.441h-34.407z" fill="#d7e057" transform="matrix(.602 -.799 .799 .602 -78.026 227.204)"/><path d="m206.059 181.953c-.056-.394-.265-.75-.583-.989l-10.734-8.09c-.317-.24-.715-.343-1.111-.288-.394.055-.749.265-.989.582l-20.708 27.478c-.239.318-.343.718-.287 1.111.056.394.265.75.583.989l10.734 8.089c.27.204.587.302.901.302.455 0 .904-.206 1.199-.597l20.708-27.477c.239-.316.342-.716.287-1.11zm-22.489 25.585-8.339-6.284 18.902-25.082 8.339 6.284z" fill="#3a312a"/><path d="m208.062 62.83c-1.9-1.73-3.52-3.71-4.82-5.86-7.32 4.48-18.02 7.31-29.94 7.31-2.83 0-5.59-.16-8.26-.47-19.16-2.18-37.53 9.25-43.6 27.56-.59 1.76-1 3.45-1.19 5.02-.03.22-.05.44-.07.66-.12 1.5-.19 3.02-.19 4.56 0 29.03 29.08 73.61 52.58 73.61 24.61 0 52.57-44.58 52.57-73.61 0-15.36-6.58-29.17-17.08-38.78z" fill="#f8e4c8"/><path d="m209.072 61.721c-1.778-1.619-3.308-3.478-4.547-5.526-.206-.342-.54-.587-.929-.682-.382-.093-.796-.03-1.138.178-7.361 4.505-17.988 7.089-29.157 7.089-2.739 0-5.46-.155-8.09-.46-19.941-2.271-38.952 9.749-45.191 28.574-.638 1.9-1.061 3.689-1.255 5.292-.03.223-.052.446-.079.746-.131 1.645-.194 3.175-.194 4.679 0 14.102 6.799 32.704 17.743 48.544 11.494 16.635 25.077 26.566 36.337 26.566 11.851 0 25.246-9.686 36.753-26.574 10.682-15.676 17.316-34.274 17.316-48.536.001-15.132-6.402-29.67-17.569-39.89zm-2.225 86.736c-10.778 15.819-23.592 25.263-34.274 25.263-10.274 0-22.936-9.447-33.868-25.271-10.617-15.366-17.212-33.313-17.212-46.839 0-1.423.061-2.876.188-4.479.017-.179.032-.358.061-.56.173-1.426.551-3.016 1.125-4.729 5.326-16.07 20.672-26.797 37.51-26.797 1.487 0 2.988.084 4.493.255 2.741.318 5.578.479 8.433.479 11.087 0 21.719-2.462 29.455-6.789 1.229 1.808 2.67 3.468 4.293 4.945 10.544 9.65 16.592 23.382 16.592 37.673-.001 13.693-6.437 31.644-16.796 46.849z" fill="#3a312a"/><path d="m154.005 95.88c-2.834 0-5.132 2.298-5.132 5.132s2.298 5.132 5.132 5.132 5.132-2.298 5.132-5.132-2.298-5.132-5.132-5.132z" fill="#3a312a"/><path d="m191.131 95.88c-2.834 0-5.132 2.298-5.132 5.132s2.297 5.132 5.132 5.132 5.132-2.298 5.132-5.132-2.297-5.132-5.132-5.132z" fill="#3a312a"/><path d="m143.748 109.661c-4.882 0-8.84 2.959-8.84 6.609s3.958 6.609 8.84 6.609c4.883 0 8.841-2.959 8.841-6.609s-3.958-6.609-8.841-6.609z" fill="#f59689"/><path d="m201.388 109.661c-4.882 0-8.84 2.959-8.84 6.609s3.958 6.609 8.84 6.609 8.84-2.959 8.84-6.609-3.958-6.609-8.84-6.609z" fill="#f59689"/><g fill="#3a312a"><path d="m187.621 133.807c-.778-.29-1.641.103-1.931.879-1.046 2.791-5.135 8.069-13.124 8.069-6.242 0-10.552-2.678-13.174-8.188-.355-.748-1.25-1.066-1.999-.71-.748.356-1.065 1.251-.71 1.999 3.126 6.568 8.47 9.898 15.883 9.898 8.368 0 14.125-5.192 15.933-10.017.291-.775-.103-1.639-.878-1.93z"/><path d="m149.616 80.391c-11.229 0-20.365 9.136-20.365 20.366 0 11.229 9.136 20.365 20.365 20.365s20.366-9.136 20.366-20.365c0-11.23-9.136-20.366-20.366-20.366zm0 37.731c-9.575 0-17.365-7.79-17.365-17.365 0-9.576 7.79-17.366 17.365-17.366 9.576 0 17.366 7.79 17.366 17.366 0 9.574-7.79 17.365-17.366 17.365z"/><path d="m196.729 80.391c-11.229 0-20.366 9.136-20.366 20.366 0 11.229 9.137 20.365 20.366 20.365s20.365-9.136 20.365-20.365c0-11.23-9.136-20.366-20.365-20.366zm0 37.731c-9.576 0-17.366-7.79-17.366-17.365 0-9.576 7.79-17.366 17.366-17.366 9.575 0 17.365 7.79 17.365 17.366 0 9.574-7.79 17.365-17.365 17.365z"/><path d="m177.862 99.218h-9.38c-.828 0-1.5.671-1.5 1.5s.672 1.5 1.5 1.5h9.38c.828 0 1.5-.671 1.5-1.5 0-.828-.672-1.5-1.5-1.5z"/><path d="m131.403 95.028-10.89-1.099c-.811-.075-1.56.517-1.643 1.342-.083.824.518 1.56 1.342 1.643l10.89 1.099c.051.005.102.007.152.007.761 0 1.412-.577 1.49-1.35.084-.824-.516-1.559-1.341-1.642z"/><path d="m226.276 95.19c-.098-.823-.838-1.41-1.667-1.312l-9.683 1.152c-.822.098-1.409.844-1.312 1.667.091.763.738 1.323 1.487 1.323.06 0 .119-.003.18-.011l9.683-1.152c.823-.098 1.41-.844 1.312-1.667z"/></g><path d="m177.543 16.554c-17.783-1.111-33.516 7.112-41.209 14.544-11.612 9.539-17.583 26.813-17.583 42.599 0 2.885.509 19.296 1.43 23.356.15-1.753.596-3.669 1.264-5.685 6.065-18.305 24.44-29.74 43.6-27.556 2.664.304 5.426.463 8.257.463 22.09 0 39.998-9.713 39.998-21.693-.001-11.981-16.364-24.816-35.757-26.028z" fill="#87796f"/><path d="m177.637 15.057c-17.397-1.092-33.768 6.704-42.302 14.921-11.155 9.196-18.084 25.941-18.084 43.719 0 2.908.492 19.391 1.467 23.688.156.688.767 1.168 1.462 1.168.034 0 .069-.001.104-.003.738-.051 1.329-.632 1.392-1.368.134-1.559.535-3.356 1.193-5.341 5.795-17.49 23.459-28.654 42.007-26.538 2.752.314 5.587.473 8.426.473 23.27 0 41.498-10.188 41.498-23.193-.001-13.191-17.714-26.31-37.163-27.526zm-4.336 47.719c-2.726 0-5.446-.153-8.086-.454-19.149-2.188-37.436 8.807-44.387 26.352-.366-5.869-.577-12.866-.577-14.977 0-16.672 6.687-32.939 17.035-41.44.031-.026.062-.052.09-.081 7.54-7.284 21.627-14.223 36.955-14.223 1.033 0 2.075.031 3.118.097 19.66 1.228 34.35 13.965 34.35 24.531 0 11.136-17.271 20.195-38.498 20.195z" fill="#3a312a"/><path d="m209.221 183.57h-3.55l-.87 2.45c10.04 4.46 17.06 14.52 17.06 26.2v25.83h16v-25.83c0-15.8-12.85-28.65-28.64-28.65z" fill="#695b51"/><path d="m65.05 43.748c-.974 11.564-13.024 13.389-13.024 13.389 10.347.487 12.925 14.059 12.925 14.059.221-9.677 13.321-14.202 13.321-14.202-9.814-.587-13.222-13.246-13.222-13.246z" fill="#d6df58"/><path d="m78.361 55.497c-8.604-.515-11.832-12.024-11.863-12.141-.19-.702-.846-1.161-1.584-1.102-.725.066-1.298.642-1.359 1.367-.859 10.215-11.313 11.964-11.754 12.033-.763.115-1.313.79-1.273 1.561.04.77.657 1.384 1.428 1.421 9.027.425 11.498 12.718 11.521 12.842.138.711.76 1.217 1.473 1.217.042 0 .084-.001.126-.005.764-.064 1.357-.693 1.375-1.459.194-8.508 12.191-12.777 12.313-12.819.676-.235 1.092-.914.994-1.622-.1-.709-.683-1.25-1.397-1.293zm-13.566 10.346c-1.356-3.131-3.708-6.908-7.586-8.877 2.931-1.405 6.408-3.913 8.201-8.273 1.551 3.071 4.2 6.88 8.334 8.722-3.007 1.641-6.922 4.407-8.949 8.428z" fill="#3a312a"/><path d="m43.351 60.729c-.689 8.179-9.212 9.471-9.212 9.471 7.318.344 9.142 9.944 9.142 9.944.156-6.844 9.422-10.045 9.422-10.045-6.941-.416-9.352-9.37-9.352-9.37z" fill="#d6df58"/><path d="m52.793 68.601c-5.767-.345-7.972-8.186-7.993-8.265-.19-.702-.855-1.163-1.582-1.102-.726.065-1.3.642-1.361 1.368-.579 6.871-7.646 8.067-7.942 8.114-.763.115-1.313.79-1.273 1.561.04.77.657 1.384 1.428 1.421 6.035.284 7.724 8.644 7.739 8.725.136.713.759 1.22 1.473 1.22.041 0 .083-.002.125-.005.765-.064 1.358-.694 1.376-1.461.13-5.709 8.331-8.634 8.412-8.662.676-.234 1.093-.913.996-1.622-.099-.708-.684-1.249-1.398-1.292zm-9.585 6.795c-.924-1.885-2.34-3.947-4.447-5.28 1.855-1.041 3.697-2.63 4.871-4.917 1.057 1.874 2.654 3.955 4.941 5.224-1.849 1.101-3.989 2.74-5.365 4.973z" fill="#3a312a"/><path d="m43.313 34.071c-.657 8.182-9.175 9.507-9.175 9.507 7.319.316 9.181 9.909 9.181 9.909.129-6.845 9.383-10.082 9.383-10.082-6.943-.389-9.389-9.334-9.389-9.334z" fill="#d6df58"/><path d="m52.785 41.907c-5.767-.323-8.004-8.154-8.025-8.233-.193-.702-.88-1.169-1.586-1.096-.726.068-1.297.647-1.355 1.374-.552 6.873-7.615 8.097-7.911 8.144-.762.119-1.31.796-1.268 1.566.043.77.663 1.382 1.434 1.415 6.036.261 7.758 8.614 7.773 8.696.138.71.76 1.214 1.472 1.214.043 0 .087-.002.131-.005.765-.066 1.355-.699 1.37-1.466.107-5.71 8.297-8.667 8.377-8.695.676-.236 1.09-.917.99-1.626-.101-.709-.688-1.248-1.402-1.288zm-9.557 6.832c-.932-1.882-2.355-3.938-4.468-5.263 1.852-1.048 3.687-2.644 4.852-4.936 1.064 1.87 2.67 3.944 4.961 5.205-1.845 1.109-3.978 2.757-5.345 4.994z" fill="#3a312a"/><path d="m79.491 124.969c-.517-.437-1.276-.437-1.792 0l-52.083 44.176v70.402h105.959v-70.402z" fill="#f16c7a"/><path d="m132.545 168.001-52.084-44.176c-1.083-.917-2.651-.915-3.732 0l-52.084 44.176c-.336.285-.529.704-.529 1.144v28.409c0 .829.672 1.5 1.5 1.5s1.5-.671 1.5-1.5v-27.714l51.48-43.663 51.479 43.663v68.208h-102.96v-26.268c0-.829-.672-1.5-1.5-1.5s-1.5.671-1.5 1.5v27.768c0 .829.672 1.5 1.5 1.5h105.959c.828 0 1.5-.671 1.5-1.5v-70.402c0-.441-.193-.86-.529-1.145z" fill="#3a312a"/><path d="m139.249 171.871-20.449-17.345-10.715-9.089-26.208-22.23c-1.901-1.61-4.661-1.611-6.565.002l-57.371 48.662c-1.554 1.318-1.745 3.648-.426 5.201 1.319 1.555 3.647 1.745 5.201.427l55.88-47.398 55.88 47.398c.694.588 1.542.876 2.386.876 1.046 0 2.086-.443 2.816-1.303 1.316-1.553 1.125-3.882-.429-5.201z" fill="#87796f"/><path d="m140.22 170.727-20.449-17.345c-.634-.537-1.58-.458-2.114.174-.536.632-.459 1.578.173 2.114l20.45 17.345c.445.378.718.908.766 1.491s-.135 1.15-.514 1.596c-.754.891-2.192 1.012-3.086.253l-55.88-47.398c-.562-.475-1.382-.474-1.941 0l-55.879 47.398c-.446.378-1.009.563-1.596.513-.583-.048-1.112-.32-1.491-.767-.379-.445-.561-1.012-.513-1.595s.319-1.113.766-1.491l57.37-48.662c1.342-1.136 3.287-1.135 4.625-.002l26.208 22.23c.632.536 1.579.457 2.114-.174.536-.632.458-1.578-.173-2.114l-26.21-22.231c-2.464-2.084-6.039-2.084-8.505.003l-57.371 48.663c-1.057.896-1.701 2.151-1.814 3.533s.318 2.726 1.215 3.781c.897 1.058 2.152 1.703 3.534 1.816.145.012.289.018.433.018 1.228 0 2.403-.43 3.35-1.232l54.908-46.575 54.91 46.575c.938.794 2.129 1.232 3.355 1.232 1.528 0 2.972-.668 3.959-1.832.897-1.057 1.329-2.4 1.216-3.782-.114-1.383-.76-2.637-1.816-3.535z" fill="#3a312a"/><path d="m80.803 175.26c-14.939 0-27.05 12.111-27.05 27.05v37.237h54.1v-37.237c0-14.939-12.111-27.05-27.05-27.05z" fill="#87796f"/><path d="m80.803 173.76c-15.742 0-28.55 12.808-28.55 28.55v37.238c0 .829.672 1.5 1.5 1.5h54.1c.828 0 1.5-.671 1.5-1.5v-37.238c0-15.743-12.808-28.55-28.55-28.55zm25.55 64.287h-51.1v-35.737c0-14.088 11.462-25.55 25.55-25.55s25.55 11.462 25.55 25.55z" fill="#3a312a"/></svg>